<svg width="140" height="80" viewBox="0 0 140 80" fill="none" xmlns="http://www.w3.org/2000/svg">
<path d="M139.693 53.8702C139.392 53.0292 138.883 52.2768 138.212 51.6828C138.31 50.2247 137.86 48.7822 136.95 47.6333C136.04 46.4845 134.733 45.7106 133.282 45.4608C133.078 44.4008 132.576 43.4193 131.835 42.629C130.857 41.5947 129.538 40.9412 128.116 40.7862C126.994 40.6487 125.856 40.8435 124.846 41.3462C125.164 40.6516 125.487 39.9388 125.811 39.1924C126.655 37.2491 127.634 35.0665 128.705 32.7071L128.734 32.6403C129.506 31.0512 129.623 29.2263 129.062 27.5526C128.756 26.6396 128.227 25.8161 127.521 25.1561C126.816 24.4961 125.956 24.0203 125.02 23.7714C124.511 23.6386 123.987 23.5727 123.462 23.5753C123.697 23.1924 123.918 22.8127 124.127 22.4362C124.85 21.1339 125.164 19.6473 125.03 18.1668C124.895 16.6863 124.319 15.2792 123.374 14.1257C122.429 12.9723 121.159 12.1249 119.726 11.6922C118.292 11.2594 116.762 11.261 115.329 11.6967C114.155 12.0559 113.086 12.6915 112.213 13.5491L112.396 12.8406C112.803 11.3228 113.087 9.77516 113.246 8.21252C113.386 7.17794 113.29 6.12535 112.966 5.13218C112.642 4.13902 112.098 3.23054 111.374 2.47358C110.113 1.12014 108.398 0.268358 106.55 0.0772397C105.502 -0.0657186 104.435 0.0274416 103.428 0.349801C102.422 0.672161 101.501 1.21544 100.735 1.93928C99.3561 3.20906 98.4975 4.93861 98.3231 6.79715C98.3024 7.01311 98.2664 7.22735 98.2155 7.43832C97.8002 6.34227 97.131 5.35849 96.2619 4.56644C95.5356 3.88904 94.6787 3.36434 93.7429 3.02387C92.807 2.68341 91.8114 2.53422 90.8159 2.58525C88.8649 2.66296 87.0188 3.48211 85.6596 4.87313C84.9487 5.58929 84.395 6.44388 84.0336 7.38298C83.6721 8.32209 83.5107 9.32533 83.5596 10.3294C83.5547 10.8153 83.4833 11.2983 83.3475 11.7651C83.1062 12.7226 82.7928 13.8184 82.4165 14.9768C82.0401 16.1351 81.5915 17.3699 81.0854 18.6287L80.8587 19.1983C80.8368 18.9015 80.7998 18.606 80.7478 18.313C80.4421 16.5658 79.5721 14.9647 78.2692 13.751C76.9662 12.5374 75.3008 11.7771 73.5243 11.5847C71.7477 11.3924 69.9563 11.7785 68.4202 12.6848C66.8842 13.5911 65.6868 14.9684 65.0086 16.6091C64.8255 16.2741 64.6316 15.9391 64.42 15.6185C63.0583 13.5609 61.0407 12.0156 58.6897 11.2297L58.5982 11.1961C56.7072 10.5584 54.6842 10.407 52.7182 10.7558C51.0496 11.0494 49.4344 11.5882 47.9259 12.3544C46.5465 13.0544 45.2353 13.8794 44.0091 14.8192C42.9157 15.652 41.9059 16.4864 40.9797 17.3224C40.0536 18.1584 39.1547 19.0489 38.2831 19.9939C36.7345 17.8032 34.137 16.6433 31.0478 16.7966C28.7766 16.9299 26.6111 17.7949 24.8803 19.2603C23.7619 20.1532 22.6989 21.1122 21.6969 22.1322C20.1446 23.6726 18.7172 25.3321 17.428 27.0953C16.2391 28.7233 15.0668 30.3796 13.9528 32.0253L13.914 32.0787C11.4113 35.8712 9.13405 39.8056 7.09385 43.8617C5.0391 47.9521 3.30235 52.1924 1.89878 56.5455C1.63816 57.3291 1.34883 58.2162 1.03078 59.2068C0.634239 60.4341 0.343855 61.6926 0.16278 62.9688C-0.0385212 64.3567 -0.0531879 65.765 0.119165 67.1567C0.352954 69.1104 1.23338 70.9318 2.62247 72.3357C3.97589 73.7995 5.80441 74.7451 7.78883 75.0075C9.77325 75.2699 11.7875 74.8324 13.48 73.7713C14.9014 72.8705 16.0645 71.6209 16.8567 70.1434C17.7514 68.5246 18.1473 66.6806 17.995 64.8405V64.7924C17.8498 63.0504 17.9145 61.2975 18.1878 59.5707C18.3163 58.7443 18.4778 57.9163 18.6724 57.0867C18.7015 57.3485 18.7384 57.6069 18.7833 57.862C19.0182 59.3965 19.7123 60.8255 20.7756 61.9638C21.8422 63.0803 23.2487 63.8186 24.7791 64.0652C26.1178 64.2758 27.4885 64.1471 28.7637 63.6912C30.041 63.2518 31.1973 62.5226 32.1404 61.5615C33.0424 60.6908 33.7792 59.6663 34.3157 58.5368C34.7015 57.7208 35.0373 56.8824 35.3211 56.0261C35.5817 55.2364 35.8057 54.4323 36.0157 53.633C36.1376 53.1469 36.2857 52.6677 36.4594 52.1973C37.0721 50.565 37.7667 48.9477 38.5238 47.411C39.3197 45.7739 40.1543 44.1278 41.0223 42.4907C42.7317 39.2223 44.6842 36.085 46.8635 33.1046C48.2991 31.1326 49.9616 29.3336 51.8173 27.7439C51.7883 27.922 51.7545 28.0991 51.7161 28.275C51.2315 30.4961 50.6392 32.7407 49.9365 34.9757L49.9123 35.0569C48.9495 38.3407 47.843 41.5882 46.688 44.6989C45.533 47.8096 44.2471 50.8877 42.8003 53.9701C42.1154 55.4539 41.3868 56.9996 40.6394 58.5603C39.9497 59.996 39.1926 61.4322 38.4059 62.7482L38.3386 62.8679C38.0828 63.3487 37.7743 63.8253 37.4232 64.3949C36.8969 65.2051 36.414 66.0423 35.9764 66.9029C35.4865 67.8736 35.0899 68.8879 34.7918 69.9324C34.3262 71.5097 34.3414 73.1884 34.8354 74.7571C35.7615 77.7246 38.0381 79.6679 40.9469 79.9596C41.665 80.0325 42.3897 80.0067 43.1007 79.8832C44.7395 79.5849 46.2436 78.7868 47.4036 77.6002C48.7934 76.2575 49.8608 74.6217 50.5267 72.8139C50.9316 71.7367 51.3564 70.7173 51.7953 69.7844L56.0739 60.6906C56.8816 58.9808 57.6559 57.2539 58.4135 55.5212C58.4716 55.6361 58.5244 55.7558 58.5869 55.8658C59.2895 57.1269 60.242 58.2339 61.3869 59.1203C62.2626 59.7987 63.2243 60.3602 64.2472 60.7905H64.2714C65.5162 61.3195 66.8572 61.5891 68.2113 61.5825C69.5654 61.5758 70.9037 61.2932 72.1432 60.752C74.1748 59.8513 75.9852 58.5236 77.4492 56.8607C78.1772 57.3795 78.9679 57.8057 79.8028 58.1291L79.9907 58.1959C80.8009 58.4689 81.6337 58.6707 82.4795 58.7991C83.5382 58.9511 84.6147 58.9331 85.6677 58.7457C85.8038 58.7291 85.9379 58.6987 86.0678 58.6549C84.7325 60.5836 83.5365 62.6037 82.4886 64.7C82.004 65.6083 81.5576 66.57 81.1479 67.5719C80.5616 68.9856 80.2585 70.4992 80.2556 72.0279C80.2265 74.4927 80.9357 76.4551 82.3685 77.8625C83.7066 79.1693 85.4936 79.925 87.3703 79.9778C88.1231 80.0046 88.8766 79.9509 89.6179 79.8175C90.2926 79.6973 90.957 79.526 91.6053 79.3051C92.7476 78.9183 93.8613 78.4528 94.9384 77.9122C95.9415 77.4094 96.8677 76.8831 97.7551 76.3568C98.5267 75.876 99.1491 75.4955 99.6074 75.1937C100.688 74.5044 101.754 73.758 102.781 73.0062C103.148 72.7332 103.51 72.4415 103.862 72.1513C105.022 72.5834 106.277 72.7007 107.499 72.4912C108.029 72.4003 111.623 71.8452 112.668 71.352C113.508 70.9568 114.242 70.3696 114.809 69.6385C116.262 70.4445 117.951 70.7253 119.589 70.433L122.749 69.849C124.273 69.5879 125.633 68.7399 126.53 67.4896L126.806 67.6333L126.907 67.6814C127.52 67.9652 128.169 68.1649 128.836 68.275C129.607 68.404 130.395 68.404 131.166 68.275C131.612 68.1933 132.048 68.068 132.469 67.901C133.726 67.4096 134.822 66.5811 135.633 65.5078C136.198 64.7773 136.692 63.9953 137.108 63.1724C137.49 62.4399 137.88 61.6074 138.276 60.6981C138.62 59.9034 139.011 59.0339 139.448 58.0896L139.477 58.0228C140.09 56.7182 140.167 55.2282 139.693 53.8681V53.8702Z" fill="#283F54"/>
<path d="M61.1699 20.1654C60.938 18.8143 60.4326 17.5238 59.6843 16.3719C58.8919 15.1973 57.7249 14.3209 56.3706 13.8831C55.2433 13.501 54.0365 13.4104 52.8641 13.6197C51.6664 13.8301 50.5071 14.2173 49.425 14.7684C48.3196 15.3267 47.2684 15.9849 46.2847 16.7346C45.291 17.4941 44.3922 18.2359 43.5881 18.96C41.3798 20.9748 39.3971 23.2203 37.6747 25.6575C35.9646 28.0821 34.41 30.6111 33.0202 33.2296C33.3433 32.2023 33.689 30.9004 34.0573 29.3239C34.4288 27.8324 34.6262 26.3035 34.6458 24.7673C34.6978 23.4866 34.4082 22.2149 33.8064 21.0807C33.2338 20.0947 32.1711 19.6336 30.6181 19.6974C29.3693 19.7826 28.1831 20.2719 27.2415 21.0903C26.2596 21.8779 25.3279 22.7251 24.4517 23.6271C23.0629 24.9995 21.787 26.48 20.6362 28.0544C19.472 29.6498 18.3464 31.2452 17.2595 32.8406C14.8623 36.4753 12.6823 40.2465 10.7306 44.1347C8.78079 48.0161 7.13436 52.0403 5.80586 56.172C5.54847 56.9474 5.26219 57.8249 4.94701 58.8045C4.63292 59.7724 4.40288 60.7652 4.2594 61.772C4.11662 62.7425 4.10522 63.7276 4.22547 64.7011C4.32688 65.6177 4.73839 66.4732 5.39286 67.1278C6.02912 67.8521 6.91488 68.3147 7.87678 68.4251C8.70709 68.5021 9.53982 68.3053 10.246 67.8652C10.9747 67.4003 11.5696 66.756 11.9729 65.9951C12.424 65.1818 12.6221 64.254 12.542 63.329C12.3628 61.208 12.4406 59.0734 12.7735 56.9708C13.1064 54.8341 13.59 52.7232 14.2209 50.6537C14.8531 48.5802 15.6101 46.5462 16.4878 44.5627C17.3627 42.5843 18.3048 40.7034 19.3142 38.9199C20.3237 37.1364 21.4106 35.4007 22.5751 33.7126C23.7524 32.0207 25.0759 30.4337 26.5307 28.9696C26.9004 28.5643 27.3827 28.0857 27.9775 27.534C28.5723 26.9822 29.1657 26.4525 29.7577 25.9449C29.8219 27.3094 29.6805 28.6757 29.3382 29.9987C28.9652 31.4345 28.6727 32.6583 28.4605 33.6699C28.094 35.4865 27.7065 37.3069 27.298 39.131C26.8815 40.9737 26.37 42.7939 25.7655 44.5846C25.4833 45.4279 25.1516 46.2541 24.7721 47.0589C24.3577 47.9394 23.9891 48.8404 23.6677 49.7582C23.35 50.6604 23.0955 51.5832 22.9058 52.52C22.7235 53.3884 22.707 54.283 22.8573 55.1574C22.9324 55.7595 23.1859 56.3259 23.5858 56.7848C23.9293 57.1502 24.3861 57.3912 24.8835 57.4693C25.4318 57.5471 25.9909 57.4862 26.5091 57.2924C27.099 57.0867 27.6306 56.7438 28.0594 56.2922C28.5633 55.8144 28.9738 55.2481 29.2698 54.622C29.5731 53.9842 29.8373 53.3289 30.0608 52.6595C30.2827 51.9863 30.4801 51.3066 30.6531 50.6206C30.8193 49.9543 31.0222 49.2975 31.2611 48.6533C31.9266 46.8823 32.6727 45.1449 33.4994 43.4412C34.3262 41.7375 35.18 40.0542 36.0609 38.3915C37.8848 34.9221 39.9673 31.5927 42.2909 28.431C44.6037 25.2549 47.4279 22.4784 50.65 20.213C51.5689 19.531 52.5937 19.0024 53.6842 18.648C54.4818 18.4375 55.088 18.9527 55.5026 20.1937C56.1815 22.5555 56.2709 25.0458 55.7632 27.4495C55.2488 29.814 54.6168 32.1817 53.8673 34.5525C52.8478 37.9443 51.7416 41.258 50.5487 44.4938C49.3559 47.7295 48.0117 50.9353 46.5162 54.1112C45.8087 55.6493 45.0787 57.2016 44.3263 58.7682C43.5739 60.3347 42.77 61.852 41.9145 63.3199C41.6162 63.8581 41.2562 64.4558 40.8344 65.113C40.4056 65.7812 40.0127 66.4714 39.6573 67.1807C39.295 67.8854 39.0011 68.6227 38.7796 69.3826C38.566 70.061 38.566 70.788 38.7796 71.4664C39.1332 72.6215 39.7973 73.2485 40.7719 73.3471C41.2512 73.3949 41.735 73.3292 42.1837 73.1553C42.6323 72.9814 43.033 72.7044 43.3527 72.3469C44.2458 71.488 44.9275 70.4366 45.3451 69.2741C45.7952 68.0745 46.2696 66.9449 46.7682 65.8856L51.042 56.7918C52.4664 53.7669 53.8025 50.7214 55.0503 47.6552C56.2981 44.589 57.4236 41.4587 58.427 38.2643C59.4318 35.0619 60.2292 31.7991 60.8145 28.4957C61.0428 27.2846 61.2212 25.938 61.3497 24.4558C61.478 23.0248 61.4181 21.5833 61.1715 20.1675L61.1699 20.1654Z" fill="white"/>
<path d="M69.9833 20.6676C70.6307 21.1201 71.4162 21.3359 72.206 21.2785C72.9957 21.221 73.741 20.8937 74.3149 20.3522C74.8889 19.8108 75.256 19.0888 75.3538 18.309C75.4516 17.5293 75.274 16.74 74.8513 16.0755C74.4286 15.411 73.7869 14.9125 73.0354 14.6647C72.2839 14.4168 71.4691 14.4351 70.7297 14.7163C69.9902 14.9976 69.3719 15.5244 68.9799 16.2071C68.5878 16.8899 68.4464 17.6863 68.5795 18.4609C68.6483 18.9047 68.8084 19.3296 69.0499 19.7093C69.2914 20.0889 69.6092 20.4151 69.9833 20.6676Z" fill="white"/>
<path d="M123.857 27.2635C123.811 27.0873 123.721 26.9257 123.594 26.7942C123.467 26.6626 123.309 26.5656 123.133 26.5123C122.729 26.4352 122.31 26.5084 121.956 26.718C121.436 27.0166 121.027 27.4731 120.789 28.0201C118.657 32.5827 116.769 35.9073 115.124 37.9939C113.479 40.0805 112.219 41.2756 111.343 41.5791C111.261 41.6369 111.163 41.6671 111.063 41.6651C111.013 41.6536 110.962 41.6536 110.913 41.6651C110.64 41.5183 110.465 41.0859 110.387 40.3678C110.31 39.6497 110.238 38.9508 110.172 38.2712C110.098 37.3141 109.971 36.3265 109.791 35.3085C109.605 34.2797 109.231 33.2934 108.686 32.3987C108.307 31.7396 107.804 31.1581 107.206 30.6852C108.502 29.9991 109.726 29.1844 110.857 28.2536C112.032 27.297 113.139 26.2616 114.171 25.1546C115.191 24.0625 116.141 22.9083 117.016 21.6988C117.833 20.5766 118.583 19.4084 119.264 18.2002C119.448 17.8949 119.563 17.554 119.602 17.2004C119.642 16.8469 119.603 16.4892 119.491 16.1517C119.391 15.8187 119.223 15.5099 118.997 15.2447C118.771 14.9795 118.493 14.7636 118.178 14.6107C117.871 14.4285 117.527 14.3141 117.171 14.2753C116.815 14.2365 116.454 14.2742 116.114 14.3858C115.414 14.5926 114.823 15.0633 114.469 15.697C114.102 16.3958 113.578 17.3148 112.897 18.454C112.215 19.5931 111.422 20.7912 110.519 22.0482C109.615 23.2928 108.602 24.5532 107.48 25.8295C106.418 27.037 105.247 28.1458 103.982 29.1421C103.623 29.0591 103.244 28.9922 102.844 28.9412C102.443 28.8932 102.019 28.8552 101.575 28.8344L101.091 28.9204C101.901 26.588 102.689 24.2586 103.454 21.9323C104.219 19.6059 104.909 17.4153 105.523 15.3604C106.141 13.3054 106.657 11.45 107.072 9.794C107.425 8.49523 107.67 7.16979 107.805 5.83108C107.866 5.48367 107.844 5.12674 107.739 4.7897C107.634 4.45267 107.45 4.1452 107.202 3.89264C106.711 3.362 106.035 3.03714 105.311 2.98432C104.961 2.92331 104.601 2.94575 104.261 3.04979C103.922 3.15384 103.612 3.33651 103.357 3.58274C102.822 4.06948 102.495 4.74076 102.442 5.45921C102.211 6.98463 101.879 8.49323 101.447 9.97513C100.884 11.998 100.191 14.2985 99.3683 16.8767C98.5452 19.4549 97.6318 22.1832 96.6281 25.0617C95.6635 27.84 94.6907 30.5618 93.7096 33.2269C93.5217 33.61 93.295 34.055 93.0199 34.5669C92.6114 35.3199 92.1483 36.1671 91.6306 37.1086C91.113 38.05 90.5261 39.0296 89.8699 40.0472C89.2308 41.0383 88.5418 41.9969 87.8054 42.9191C87.2121 43.6825 86.5675 44.4052 85.8761 45.0825C85.4272 45.5309 84.9381 45.9378 84.4147 46.298C84.1071 46.5206 83.76 46.6837 83.3916 46.7789C83.2103 46.816 83.0232 46.816 82.8419 46.7789C82.7388 46.75 82.6102 46.5043 82.4558 46.0416C82.282 45.1791 82.2609 44.2932 82.3933 43.4235C82.6281 41.5456 82.9988 39.687 83.5026 37.8619C84.1924 35.3282 85.0136 32.8315 85.9628 30.3817C86.3358 29.4246 86.7281 28.4547 87.1399 27.4719C87.5516 26.4891 87.944 25.5192 88.3169 24.5621C89.6225 21.4126 90.7713 18.4244 91.7631 15.5976C92.6887 13.1954 93.1795 10.6499 93.2132 8.07836C93.2005 7.72631 93.1158 7.3805 92.964 7.06202C92.8123 6.74354 92.5968 6.45906 92.3306 6.22593C92.0759 5.98099 91.7733 5.79046 91.4415 5.66612C91.1096 5.54179 90.7556 5.48628 90.4013 5.50302C89.6711 5.52757 88.9791 5.83322 88.472 6.35523C88.2218 6.59879 88.027 6.89259 87.9005 7.21695C87.774 7.54131 87.7188 7.88874 87.7386 8.23598C87.7575 9.18086 87.6406 10.1236 87.3913 11.0357C87.1182 12.1303 86.7757 13.311 86.3639 14.5776C85.9522 15.8443 85.4697 17.1579 84.9166 18.5186C84.3731 19.8811 83.849 21.2149 83.3443 22.52L82.1096 25.5121C81.6978 26.5095 81.3103 27.5018 80.947 28.4892C80.0273 30.9559 79.2669 33.2055 78.6656 35.238C78.6316 35.2952 78.6026 35.3448 78.5692 35.4058C78.3603 35.8813 78.0515 36.4956 77.643 37.2486C77.2345 38.0016 76.7513 38.8516 76.1935 39.7988C75.65 40.7559 75.0552 41.7371 74.409 42.7423C73.7629 43.7475 73.0844 44.7047 72.3737 45.6141C71.7814 46.3769 71.1368 47.0981 70.4443 47.7727C69.9968 48.2126 69.5128 48.6143 68.9975 48.9738C68.7108 49.1954 68.3829 49.3588 68.0326 49.4547C67.8512 49.4918 67.6642 49.4918 67.4828 49.4547C66.8395 49.2249 66.5179 48.5868 66.5179 47.5403C66.5275 46.3409 66.6903 45.1475 67.0025 43.9888C67.3544 42.5898 67.7828 41.2109 68.2857 39.8581C68.813 38.4254 69.2696 37.165 69.6555 36.0768C70.5077 33.7858 71.1508 31.9207 71.5848 30.4816C71.9863 29.2866 72.1084 28.0165 71.9418 26.7677C71.7888 26.0626 71.367 25.4435 70.7647 25.0398C70.4702 24.8401 70.1384 24.7009 69.7889 24.6302C69.4394 24.5596 69.0791 24.5589 68.7294 24.6284C68.386 24.6862 68.0583 24.8138 67.767 25.0032C67.4757 25.1926 67.227 25.4397 67.0364 25.729C66.8283 26.0236 66.6825 26.3571 66.6079 26.7092C66.5333 27.0612 66.5315 27.4247 66.6024 27.7775C66.5443 28.6952 66.3306 29.5966 65.9703 30.4437C65.5137 31.7424 65.0441 32.9693 64.5617 34.1245C63.9184 35.841 63.2753 37.6327 62.6324 39.4996C62.0163 41.235 61.5705 43.0254 61.3013 44.8458C61.0891 46.1667 61.0681 47.5108 61.2388 48.8376C61.3602 49.8295 61.6625 50.7913 62.1311 51.6758C62.5149 52.3784 63.0384 52.9964 63.67 53.4924C64.2115 53.9157 64.8068 54.2665 65.4404 54.5359C66.0894 54.8197 66.7908 54.9662 67.5 54.9662C68.2092 54.9662 68.9107 54.8197 69.5597 54.5359C70.9603 53.9043 72.2048 52.9764 73.2061 51.8174C74.3802 50.4874 75.4055 49.035 76.264 47.4858C76.5246 47.0049 76.7756 46.562 77.0211 46.1073C77.0453 46.3034 77.0696 46.5 77.1078 46.6817C77.2731 47.5801 77.5631 48.4514 77.9693 49.2709C78.2872 49.9117 78.74 50.4773 79.2972 50.9294C79.7689 51.3026 80.2939 51.6042 80.855 51.8243C81.3934 52.0077 81.9471 52.1438 82.5096 52.2309C83.0578 52.3079 83.615 52.2965 84.1595 52.1973C85.2811 51.9571 86.3072 51.3964 87.1113 50.5842C87.5937 50.1305 88.0509 49.6512 88.4812 49.1485C88.5008 49.2248 88.5249 49.2999 88.5533 49.3735C88.6928 49.7046 88.9025 50.002 89.168 50.2457C89.4335 50.4893 89.7487 50.6735 90.0922 50.7856C90.5496 50.9327 91.0352 50.972 91.5106 50.9005C91.9756 50.8355 92.4137 50.6449 92.777 50.3494C93.1402 50.054 93.4146 49.6652 93.5702 49.2255C93.7019 48.8618 93.9623 48.1838 94.3515 47.1914C94.7406 46.199 95.1908 45.0009 95.7019 43.5971C96.2131 42.193 96.8054 40.6168 97.4789 38.8686C98.1523 37.1203 98.8324 35.2859 99.5191 33.3653C99.7604 33.6563 100.066 33.888 100.413 34.0424C100.759 34.1968 101.137 34.2697 101.516 34.2554C102.035 34.2281 102.555 34.2847 103.055 34.4232C103.433 34.5406 103.761 34.7798 103.986 35.1028C104.244 35.5212 104.41 35.9896 104.471 36.4765C104.578 37.0667 104.667 37.8422 104.736 38.8028C104.808 39.4729 104.895 40.1637 104.997 40.8754C105.101 41.6031 105.278 42.3189 105.522 43.0126C105.779 43.7382 106.162 44.4136 106.653 45.0082C107.188 45.6504 107.858 46.1684 108.616 46.5256C109.148 46.772 109.711 46.9444 110.29 47.038C110.885 47.138 111.493 47.138 112.089 47.038C112.447 46.9593 112.797 46.8488 113.136 46.7078C114.193 46.2639 115.106 45.5383 115.774 44.6112C116.697 43.4041 117.504 42.1143 118.186 40.7584C118.99 39.2075 119.828 37.4302 120.699 35.4266C121.57 33.423 122.554 31.2293 123.651 28.8456C123.92 28.3636 123.994 27.7977 123.857 27.2635Z" fill="white"/>
<path fill-rule="evenodd" clip-rule="evenodd" d="M134.533 53.9382C134.583 53.9909 134.62 54.0556 134.638 54.1261L134.63 54.1363C134.659 54.3396 134.615 54.5465 134.504 54.7203C134.064 55.692 133.669 56.5711 133.32 57.3576C132.971 58.1441 132.635 58.8565 132.312 59.4948C132.039 60.0387 131.716 60.5561 131.347 61.0406C131.077 61.4098 130.71 61.698 130.286 61.8735C130.15 61.9306 130.01 61.9755 129.866 62.0076C129.627 62.048 129.382 62.048 129.142 62.0076C128.911 61.9699 128.685 61.9007 128.472 61.8019C128.168 61.6587 127.9 61.4511 127.686 61.1939C127.489 60.9551 127.335 60.6838 127.233 60.3924C127.134 60.115 127.063 59.8287 127.02 59.5376C126.982 59.2501 126.948 58.9724 126.919 58.7046C126.889 58.3024 126.853 57.9833 126.811 57.7471C126.784 57.5514 126.715 57.3638 126.609 57.1968C126.519 57.0674 126.388 56.9714 126.237 56.9238C126.037 56.8685 125.828 56.846 125.62 56.857C125.467 56.8643 125.315 56.8355 125.176 56.7731C125.037 56.7107 124.914 56.6164 124.819 56.4979C124.54 57.2609 124.266 57.9981 123.999 58.7094C123.732 59.4207 123.496 60.0589 123.29 60.6238C123.089 61.182 122.909 61.6605 122.751 62.0595C122.594 62.4584 122.489 62.7313 122.438 62.878C122.376 63.0539 122.266 63.2094 122.12 63.3275C121.975 63.4456 121.799 63.5219 121.613 63.548C121.422 63.5762 121.227 63.5598 121.044 63.4999C120.908 63.4559 120.783 63.3835 120.677 63.2878C120.572 63.1921 120.488 63.0752 120.431 62.9448C120.409 62.9695 120.387 62.9945 120.365 63.0196C120.29 63.1033 120.215 63.1881 120.132 63.2654C119.766 63.6338 119.309 63.9011 118.806 64.0407C118.717 64.0791 118.623 64.1048 118.526 64.1171C118.217 64.1764 117.9 64.1722 117.593 64.1046C117.286 64.0371 116.996 63.9076 116.741 63.7243C115.821 63.086 115.492 62.0602 115.753 60.6468C115.848 60.1161 115.994 59.5954 116.187 59.0914C116.402 58.5172 116.611 57.9779 116.814 57.4735C117.016 56.9692 117.211 56.4618 117.398 55.9513C117.564 55.5072 117.69 55.049 117.774 54.5824C117.862 54.3297 117.862 54.0551 117.774 53.8024C117.723 53.7222 117.66 53.6502 117.587 53.5886C117.557 53.5656 117.525 53.5464 117.49 53.5315C117.431 53.5337 117.374 53.5485 117.321 53.5748C116.917 53.7831 116.561 54.0746 116.279 54.4296C115.733 55.062 115.248 55.7448 114.832 56.4685C114.193 57.5716 113.611 58.7057 113.086 59.8667C112.453 61.2227 111.784 62.8581 111.079 64.7726C111.034 64.9083 110.962 65.0334 110.866 65.1404C110.771 65.2474 110.655 65.3341 110.525 65.3951C110.4 65.4568 110.263 65.491 110.123 65.4951C109.984 65.4993 109.845 65.4734 109.717 65.4192C109.58 65.382 109.453 65.3168 109.344 65.2278C109.234 65.1388 109.144 65.028 109.08 64.9025C109.008 64.7647 108.967 64.6128 108.96 64.4574C108.839 64.6108 108.719 64.7588 108.593 64.8977C108.196 65.3611 107.703 65.7333 107.146 65.9887C106.886 66.1028 106.604 66.1617 106.319 66.1617C106.034 66.1617 105.752 66.1028 105.492 65.9887C105.238 65.8813 105 65.7414 104.782 65.5725C104.53 65.3734 104.32 65.1259 104.165 64.8448C103.977 64.4944 103.855 64.1135 103.803 63.7201C103.734 63.1874 103.742 62.6476 103.827 62.1172C103.936 61.387 104.115 60.669 104.362 59.973C104.622 59.2232 104.878 58.5037 105.129 57.8144C105.322 57.3517 105.51 56.8603 105.694 56.3403C105.838 55.9994 105.922 55.6369 105.944 55.268C105.916 55.1262 105.916 54.9801 105.946 54.8386C105.976 54.6971 106.035 54.563 106.118 54.4446C106.195 54.3286 106.295 54.2296 106.412 54.1539C106.529 54.0781 106.661 54.0272 106.798 54.0043C106.938 53.9758 107.082 53.9753 107.222 54.0028C107.362 54.0303 107.495 54.0853 107.614 54.1646C107.86 54.3247 108.034 54.5739 108.098 54.8592C108.164 55.3599 108.114 55.8688 107.953 56.3478C107.783 56.9248 107.528 57.6728 107.187 58.5918C107.032 59.0293 106.849 59.5351 106.637 60.1093C106.435 60.6517 106.263 61.2046 106.121 61.7656C105.997 62.2343 105.934 62.7167 105.933 63.2013C105.936 63.6191 106.065 63.8743 106.319 63.9669C106.392 63.982 106.468 63.982 106.541 63.9669C106.684 63.9315 106.819 63.8681 106.937 63.7804C107.141 63.6363 107.333 63.4754 107.511 63.2996C107.786 63.0286 108.042 62.7393 108.278 62.4335C108.561 62.073 108.832 61.6885 109.093 61.2799C109.353 60.8714 109.593 60.4772 109.812 60.0975C110.027 59.7149 110.217 59.3735 110.381 59.0733C110.545 58.773 110.669 58.5272 110.752 58.3359L110.81 58.2355L112.421 52.9705C112.458 52.8357 112.524 52.7105 112.615 52.6038C112.706 52.4971 112.819 52.4114 112.947 52.3528C113.204 52.2298 113.495 52.1994 113.772 52.2668C113.976 52.2848 114.172 52.3582 114.337 52.4789C114.502 52.5996 114.63 52.763 114.708 52.9512C114.858 53.3363 114.858 53.763 114.708 54.1481C115.172 53.2902 115.833 52.5525 116.637 51.9943C116.921 51.7784 117.257 51.6405 117.612 51.5942C117.967 51.548 118.328 51.5951 118.658 51.7309C119.118 51.9417 119.488 52.3082 119.7 52.7648C119.837 53.068 119.923 53.3914 119.956 53.7222C120 54.1449 119.987 54.5714 119.917 54.9906C119.823 55.5525 119.674 56.1039 119.473 56.6374C119.261 57.2116 119.038 57.7827 118.803 58.3509C118.697 58.6412 118.57 58.981 118.422 59.3703C118.273 59.7597 118.143 60.1346 118.031 60.495C117.929 60.8066 117.858 61.1273 117.819 61.4525C117.791 61.7332 117.845 61.9198 117.98 62.0124L118.043 62.0461C118.1 62.0551 118.159 62.0551 118.216 62.0461C118.583 61.9266 118.914 61.7194 119.181 61.4429C119.597 61.0472 119.979 60.6183 120.324 60.1606C120.754 59.5954 121.152 59.0067 121.516 58.3974C121.884 57.778 122.217 57.1389 122.514 56.483C122.9 55.4236 123.287 54.3418 123.677 53.2376C124.081 52.0828 124.448 50.9884 124.776 49.9543C125.104 48.9203 125.379 47.9981 125.601 47.1877C125.775 46.5916 125.909 45.9847 126.002 45.3711C126.023 45.0834 126.154 44.8146 126.368 44.6199C126.471 44.5206 126.595 44.4472 126.732 44.4055C126.869 44.3639 127.014 44.3553 127.154 44.3805C127.444 44.4019 127.715 44.532 127.912 44.7443C128.011 44.8461 128.085 44.9699 128.127 45.1055C128.169 45.2412 128.178 45.3847 128.153 45.5244C128.099 46.0612 128 46.5927 127.859 47.1134C127.691 47.7802 127.484 48.5252 127.236 49.3484C127.006 50.1716 126.73 51.0507 126.407 51.9857L125.442 54.7903L125.644 54.7566C125.722 54.7608 125.798 54.7695 125.872 54.778C125.969 54.7891 126.064 54.7999 126.156 54.7999C126.318 54.822 126.47 54.8491 126.614 54.8811C127.122 54.481 127.592 54.0357 128.018 53.5507C128.45 53.0656 128.857 52.5592 129.238 52.0333C129.608 51.5325 129.929 51.0539 130.203 50.5976C130.476 50.1413 130.687 49.7728 130.835 49.4921C130.977 49.2376 131.214 49.0486 131.496 48.9659C131.632 48.921 131.777 48.9059 131.92 48.9216C132.064 48.9372 132.202 48.9833 132.325 49.0567C132.452 49.1192 132.564 49.2072 132.655 49.3151C132.745 49.423 132.812 49.5485 132.851 49.6834C132.896 49.8191 132.912 49.9629 132.896 50.1051C132.88 50.2472 132.834 50.3842 132.759 50.5068C132.19 51.5133 131.503 52.4499 130.713 53.2974C130.299 53.7419 129.854 54.1577 129.382 54.5418C128.933 54.908 128.448 55.2287 127.935 55.4993C128.175 55.6895 128.376 55.9235 128.528 56.1886C128.746 56.5476 128.897 56.9435 128.971 57.3565C129.044 57.7493 129.095 58.1456 129.126 58.5438C129.15 58.8088 129.179 59.0864 129.212 59.3767C129.246 59.667 129.317 59.8409 129.425 59.8982H129.482C129.502 59.9078 129.539 59.8934 129.593 59.8646C129.96 59.7466 130.465 59.2681 131.108 58.4289C132.005 57.1784 132.767 55.8371 133.38 54.4275C133.48 54.206 133.65 54.0229 133.864 53.906C134.01 53.8195 134.183 53.7905 134.349 53.8248C134.419 53.8464 134.482 53.8855 134.533 53.9382ZM103.087 63.2749C102.966 63.1412 102.811 63.042 102.638 62.9875C102.465 62.9307 102.28 62.9174 102.1 62.949C101.925 62.9816 101.76 63.0518 101.615 63.1547C101.464 63.2604 101.341 63.4018 101.258 63.5661C100.579 64.335 99.8299 65.0399 99.0199 65.6718C98.2 66.3101 97.3688 66.9196 96.5263 67.5002C95.5948 68.1483 94.6286 68.7458 93.632 69.2901C92.6348 69.8391 91.5895 70.2972 90.509 70.659C89.8059 70.9158 89.0573 71.0265 88.3093 70.9844C87.8911 70.9014 87.7296 70.5096 87.8247 69.8089C87.9485 69.0026 88.1822 68.2168 88.5193 67.4729C88.8677 66.6914 89.2705 65.935 89.7249 65.2091C90.1848 64.4753 90.6671 63.7654 91.1718 63.0794C91.6765 62.3933 92.1588 61.736 92.6186 61.1073C93.4321 60.0287 94.2827 58.9709 95.1704 57.934C96.0581 56.8971 96.9956 55.8841 97.9828 54.8949C98.5166 54.3524 99.0633 53.8324 99.6229 53.3348C100.183 52.8372 100.729 52.3171 101.263 51.7746C101.465 51.6024 101.63 51.3915 101.747 51.1547C101.865 50.9178 101.933 50.6598 101.948 50.3961C101.952 50.1954 101.914 49.996 101.838 49.81C101.762 49.624 101.648 49.4553 101.504 49.3142C101.35 49.1741 101.169 49.0664 100.972 48.9974C100.774 48.9283 100.565 48.8994 100.356 48.9124C99.8207 48.943 99.3177 49.1779 98.9526 49.5679C97.3426 51.0462 95.8509 52.6465 94.4909 54.3542C93.1404 56.0551 91.8542 57.8101 90.6323 59.6192C89.3647 61.4201 88.236 63.3134 87.2556 65.2828C86.8319 66.077 86.4488 66.8917 86.1076 67.7241C85.7723 68.5564 85.6051 69.4459 85.6154 70.3421C85.596 71.4588 85.8195 72.2453 86.2858 72.7016C86.764 73.1631 87.4032 73.4238 88.0703 73.4293C88.9008 73.442 89.7267 73.3026 90.5063 73.0179C91.4156 72.7097 92.3021 72.3387 93.1593 71.9076C94.0276 71.4738 94.8315 71.0303 95.571 70.5772C96.3105 70.1241 96.8813 69.7651 97.2833 69.5001C98.2479 68.881 99.1992 68.2268 100.137 67.5376C101.071 66.8449 101.936 66.066 102.722 65.2112C102.835 65.0741 102.945 64.9273 103.055 64.771C103.161 64.6247 103.242 64.4623 103.296 64.2901C103.345 64.1208 103.358 63.9432 103.335 63.7686C103.306 63.5809 103.216 63.4076 103.079 63.2755L103.087 63.2749ZM107.38 52.4586C107.643 52.6494 107.965 52.7434 108.29 52.7245C108.616 52.7056 108.924 52.5751 109.163 52.3551C109.402 52.1352 109.556 51.8397 109.6 51.5192C109.643 51.1987 109.573 50.8732 109.4 50.5986C109.228 50.324 108.965 50.1173 108.657 50.014C108.348 49.9107 108.012 49.9173 107.708 50.0325C107.404 50.1477 107.149 50.3645 106.988 50.6456C106.827 50.9267 106.769 51.2547 106.825 51.5732C106.852 51.7506 106.915 51.9206 107.01 52.0729C107.106 52.2252 107.231 52.3565 107.38 52.4586Z" fill="#FFF024"/>
<path fill-rule="evenodd" clip-rule="evenodd" d="M79.1912 14.7662C79.9826 15.8094 80.5103 17.0256 80.7301 18.3129C80.7821 18.606 80.8191 18.9015 80.841 19.1983L81.0387 18.6479L81.1974 18.2331L81.1974 18.2331L81.1974 18.2331L81.1974 18.2331C81.627 17.1113 82.0436 16.0233 82.3697 14.996C82.4049 14.891 82.4382 14.7816 82.4706 14.6748L82.4707 14.6747L82.4707 14.6746C82.5093 14.5476 82.5468 14.4243 82.5851 14.3163C81.8028 12.383 81.1285 10.3499 80.496 8.44247L80.496 8.44246L80.496 8.44239C78.7629 3.21625 77.3429 -1.06579 74.8695 0.235349C72.6692 1.40146 73.6881 2.79768 75.2872 4.98905C76.9172 7.22261 79.1499 10.2822 79.1912 14.7662ZM41.6891 9.2123C42.2509 11.3016 40.7805 13.5052 38.4049 14.1342C36.0292 14.7632 33.6479 13.5794 33.0861 11.4901C32.5243 9.40078 33.9947 7.19717 36.3703 6.56818C38.746 5.93919 41.1273 7.123 41.6891 9.2123ZM133.709 28.7799C134.823 27.052 136.975 26.4488 138.533 27.4063C140.094 28.3787 140.453 30.5709 139.358 32.2983C138.264 34.0257 135.002 36.405 133.44 35.4331C131.879 34.4612 132.595 30.5079 133.709 28.7799ZM35.9942 66.889C35.5044 67.8597 35.1078 68.874 34.8096 69.9185C34.387 71.3389 34.351 72.845 34.7051 74.2837C28.6518 73.3022 26.4328 69.397 26.457 64.132C27.2362 64.0773 28.0041 63.9154 28.7384 63.6511C30.0157 63.2117 31.172 62.4825 32.1151 61.5214C33.0171 60.6507 33.754 59.6262 34.2905 58.4967C34.6771 57.6816 35.0137 56.8441 35.2985 55.9887C35.5624 55.1894 35.7955 54.3853 35.9931 53.5956C36.1149 53.1094 36.263 52.6302 36.4368 52.1599C37.0544 50.5516 37.7442 48.9338 38.5013 47.3736C39.2971 45.7365 40.1317 44.0903 40.9997 42.4532C42.7169 39.1966 44.6758 36.0712 46.8603 33.1029C48.301 31.1248 49.9701 29.3209 51.8336 27.7279C51.8049 27.9038 51.7711 28.0809 51.7323 28.259C51.2547 30.4988 50.6565 32.7482 49.9522 34.9596L49.928 35.0409C48.9393 38.3268 47.8441 41.6074 46.7058 44.685C45.5675 47.7626 44.265 50.8738 42.8181 53.9562C42.1332 55.44 41.4052 56.9862 40.6573 58.5464C39.9675 59.9869 39.2147 61.3985 38.4237 62.7342L38.3564 62.8539C38.1066 63.3124 37.7932 63.8306 37.441 64.381C36.9147 65.1912 36.4318 66.0283 35.9942 66.889ZM127.58 14.1731C130.993 9.95643 133.901 0.809713 127.267 1.43645C124.372 1.71237 123.435 5.8915 122.373 10.6313L122.373 10.6324C122.219 11.3167 122.064 12.0126 121.899 12.7102C123.421 13.761 124.495 15.3371 124.91 17.131C125.324 18.9249 125.05 20.8078 124.141 22.4121C123.929 22.7886 123.707 23.1683 123.476 23.5512C124.001 23.5486 124.525 23.6145 125.034 23.7473C125.89 23.973 126.681 24.3938 127.344 24.9762C128.184 23.9754 129.114 23.0526 130.123 22.2192C138.791 14.9901 132.202 10.0328 127.58 14.1731ZM86.084 58.6639C84.7424 60.5896 83.5398 62.6072 82.4855 64.7015C82.0386 65.5111 81.6449 66.3485 81.3068 67.2085C80.8723 67.4805 80.4348 67.7905 79.9827 68.1108C78.804 68.9458 77.526 69.8512 75.9432 70.3389C69.2487 72.4138 66.2666 69.1398 63.8312 66.4661C61.0024 63.3605 58.9114 61.0649 52.5971 68.9033C52.3369 69.2288 52.0748 69.5368 51.811 69.8271V69.7934L56.0896 60.6996C56.8951 58.9909 57.6754 57.263 58.4292 55.5302C58.4584 55.5839 58.4845 55.6386 58.5104 55.6929C58.54 55.7548 58.5693 55.8162 58.6026 55.8748C59.3052 57.1359 60.2576 58.2429 61.4026 59.1293C62.2784 59.8077 63.24 60.3692 64.2629 60.7995H64.2871C65.5319 61.3285 66.8729 61.5981 68.227 61.5915C69.5811 61.5848 70.9194 61.3022 72.1589 60.761C74.1906 59.8604 76.001 58.5327 77.4649 56.8697C78.1931 57.3885 78.9839 57.8147 79.819 58.1381L80.007 58.2049C80.8171 58.4779 81.6499 58.6798 82.4957 58.8082C83.5545 58.9601 84.631 58.9421 85.6839 58.7547C85.7637 58.7405 85.842 58.7213 85.9207 58.7021C85.9747 58.6889 86.029 58.6756 86.084 58.6639Z" fill="#2292FF"/>
</svg>
